<svg width="270" height="259" viewBox="0 0 270 259" fill="none" xmlns="http://www.w3.org/2000/svg">
<path d="M8.20036 190.928C-7.51928 231.912 16.136 254.326 39.5643 258.88L161.996 243.754C190.588 227.165 255.008 161.779 263.775 106.743C274.733 37.9475 268.539 27.5648 247 10C225.461 -7.56482 197.138 3.21405 189.958 6.14152C182.779 9.06899 130.632 49.0777 87.932 44.6865C45.232 40.2953 19.5364 33.4645 4.0435 49.0777C-11.4494 64.6908 25.9603 92.9897 32.7621 115.922C39.5638 138.853 27.8499 139.697 8.20036 190.928Z" fill="#505AEF"/>
<path d="M8.20036 190.928C-7.51928 231.912 16.136 254.326 39.5643 258.88L161.996 243.754C190.588 227.165 255.008 161.779 263.775 106.743C274.733 37.9475 268.539 27.5648 247 10C225.461 -7.56482 197.138 3.21405 189.958 6.14152C182.779 9.06899 130.632 49.0777 87.932 44.6865C45.232 40.2953 19.5364 33.4645 4.0435 49.0777C-11.4494 64.6908 25.9603 92.9897 32.7621 115.922C39.5638 138.853 27.8499 139.697 8.20036 190.928Z" fill="url(#paint0_linear_794_551)"/>
<path d="M8.20036 190.928C-7.51928 231.912 16.136 254.326 39.5643 258.88L161.996 243.754C190.588 227.165 255.008 161.779 263.775 106.743C274.733 37.9475 268.539 27.5648 247 10C225.461 -7.56482 197.138 3.21405 189.958 6.14152C182.779 9.06899 130.632 49.0777 87.932 44.6865C45.232 40.2953 19.5364 33.4645 4.0435 49.0777C-11.4494 64.6908 25.9603 92.9897 32.7621 115.922C39.5638 138.853 27.8499 139.697 8.20036 190.928Z" fill="url(#paint1_linear_794_551)"/>
<path d="M8.20036 190.928C-7.51928 231.912 16.136 254.326 39.5643 258.88L161.996 243.754C190.588 227.165 255.008 161.779 263.775 106.743C274.733 37.9475 268.539 27.5648 247 10C225.461 -7.56482 197.138 3.21405 189.958 6.14152C182.779 9.06899 130.632 49.0777 87.932 44.6865C45.232 40.2953 19.5364 33.4645 4.0435 49.0777C-11.4494 64.6908 25.9603 92.9897 32.7621 115.922C39.5638 138.853 27.8499 139.697 8.20036 190.928Z" fill="url(#paint2_linear_794_551)" fill-opacity="0.4"/>
<defs>
<linearGradient id="paint0_linear_794_551" x1="-315.823" y1="227.059" x2="-204.158" y2="-254.609" gradientUnits="userSpaceOnUse">
<stop stop-color="#505AEF"/>
<stop offset="1" stop-color="#9852B6"/>
</linearGradient>
<linearGradient id="paint1_linear_794_551" x1="127.494" y1="313.996" x2="127.494" y2="210.181" gradientUnits="userSpaceOnUse">
<stop stop-color="#1C1739"/>
<stop offset="1" stop-opacity="0"/>
</linearGradient>
<linearGradient id="paint2_linear_794_551" x1="127.158" y1="175.072" x2="122.208" y2="50.8715" gradientUnits="userSpaceOnUse">
<stop offset="0.369866" stop-color="#0C0A19"/>
<stop offset="1" stop-color="#0F0C1D"/>
</linearGradient>
</defs>
</svg>
